<?xml version="1.0" encoding="UTF-8" standalone="no"?><!DOCTYPE svg PUBLIC "-//W3C//DTD SVG 1.1//EN" "http://www.w3.org/Graphics/SVG/1.1/DTD/svg11.dtd"><svg width="100%" height="100%" viewBox="0 0 32 32" version="1.1" xmlns="http://www.w3.org/2000/svg" xmlns:xlink="http://www.w3.org/1999/xlink" xml:space="preserve" xmlns:serif="http://www.serif.com/" style="fill-rule:evenodd;clip-rule:evenodd;stroke-linejoin:round;stroke-miterlimit:2;"><rect id="icon-mono" x="0" y="0" width="32" height="32" style="fill:none;"/><g><g><path d="M6.723,30.552c0,-0 -1.667,-3.102 -1.495,-4.772c0.201,-1.957 1.633,-5.725 3.249,-7.138c1.358,-1.188 5.38,-2.41 5.38,-2.41c0,0 1.396,3.82 1.438,5.599c0.058,2.489 -2.091,5.614 -3.428,7.039c-1.104,1.176 -5.144,1.682 -5.144,1.682Z" style="fill:#fff;stroke:#000;stroke-width:0.5px;"/></g><path d="M9.04,18.233c0.557,-0.64 2.504,-2.361 4.622,-3.284c2.668,-1.162 4.693,-4.491 4.559,-6.856c-0.086,-1.519 -1.81,-2.966 -1.975,-2.741c-0.039,-0.513 0.221,-0.72 0.711,-0.692c0.89,0.398 1.302,0.956 1.665,1.647c0.655,1.247 0.693,2.803 0.215,4.274c-0.754,2.318 -2.511,4.95 -2.898,6.601c-0.315,1.343 -0.143,2.92 -0.283,3.941c-0.102,0.744 -0.555,2.184 -0.555,2.184c-0.539,-1.374 -0.872,-2.827 -0.804,-4.432c-0.482,0.504 -0.98,0.735 -1.495,0.637c-0.333,-0.468 -0.342,-0.999 -0.273,-1.544c-1.21,0.528 -2.358,0.475 -3.489,0.265Z"/><path d="M9.04,18.233c0.557,-0.64 2.504,-2.361 4.622,-3.284c2.668,-1.162 4.693,-4.491 4.559,-6.856c-0.086,-1.519 -1.81,-2.966 -1.975,-2.741c-0.039,-0.513 0.221,-0.72 0.711,-0.692c0.89,0.398 1.302,0.956 1.665,1.647c0.655,1.247 0.693,2.803 0.215,4.274c-0.754,2.318 -2.511,4.95 -2.898,6.601c-0.315,1.343 -0.143,2.92 -0.283,3.941c-0.102,0.744 -0.555,2.184 -0.555,2.184c-0.539,-1.374 -0.872,-2.827 -0.804,-4.432c-0.482,0.504 -0.98,0.735 -1.495,0.637c-0.333,-0.468 -0.342,-0.999 -0.273,-1.544c-1.21,0.528 -2.358,0.475 -3.489,0.265Zm8.925,-12.067c-0.133,-0.21 -0.284,-0.402 -0.474,-0.576c0.16,0.17 0.322,0.364 0.474,0.576Zm0.624,3.322c-0.509,2.298 -2.38,4.897 -4.727,5.92c-1.486,0.647 -2.886,1.702 -3.741,2.463c0.718,0.046 1.45,-0.03 2.208,-0.361c0.165,-0.072 0.356,-0.05 0.5,0.058c0.144,0.108 0.219,0.284 0.196,0.463c-0.044,0.347 -0.064,0.689 0.076,1.001c0.286,-0.025 0.558,-0.214 0.834,-0.503c0.144,-0.15 0.366,-0.196 0.557,-0.114c0.192,0.081 0.313,0.273 0.304,0.481c-0.039,0.936 0.065,1.818 0.269,2.661c0.042,-0.183 0.076,-0.356 0.096,-0.501c0.141,-1.033 -0.027,-2.629 0.291,-3.988c0.39,-1.661 2.152,-4.31 2.91,-6.641c0.1,-0.311 0.177,-0.625 0.227,-0.939Z"/><g><path d="M16.589,4.524c-6.698,-3.122 -11.065,-0.14 -14.385,5.588c5.933,1.128 11.212,0.5 14.678,-4.98c0.21,-0.295 0.084,-0.489 -0.293,-0.608Z"/><path d="M16.589,4.524c0.377,0.119 0.503,0.313 0.293,0.608c-3.466,5.48 -8.745,6.108 -14.678,4.98c3.32,-5.728 7.687,-8.71 14.385,-5.588Zm-0.204,0.457c-0.002,-0.001 -0.005,-0.002 -0.007,-0.003c-2.554,-1.191 -4.75,-1.466 -6.672,-0.999c-2.72,0.66 -4.869,2.788 -6.702,5.768c5.39,0.9 10.178,0.192 13.381,-4.766Z"/></g><g><path d="M16.655,4.737c-7.315,-0.98 -10.548,3.181 -11.945,9.655c5.98,-0.699 10.798,-2.881 12.41,-9.162c0.109,-0.345 -0.071,-0.492 -0.465,-0.493Z" style="fill:#fff;"/><path d="M16.655,4.737c0.394,0.001 0.574,0.148 0.465,0.493c-1.612,6.281 -6.43,8.463 -12.41,9.162c1.397,-6.474 4.63,-10.635 11.945,-9.655Zm-0.053,0.497c-0.004,-0.001 -0.009,-0.001 -0.013,-0.002c-2.788,-0.373 -4.956,0.021 -6.637,1.043c-2.381,1.447 -3.767,4.128 -4.594,7.53c5.394,-0.754 9.724,-2.865 11.244,-8.571Z"/></g><g><path d="M31.03,19.75l-0,-0.203l-6.042,-0l0,0.203c0.798,0.068 1.354,0.279 1.67,0.631c0.234,0.245 0.375,0.557 0.423,0.937c0.048,0.38 0.072,0.808 0.072,1.283c0,0.475 -0.027,0.936 -0.082,1.384c-0.055,0.448 -0.138,0.76 -0.248,0.936c-0.329,0.503 -0.78,0.866 -1.35,1.09c-0.571,0.224 -1.186,0.335 -1.846,0.335c-0.921,0 -1.739,-0.173 -2.453,-0.519c-0.715,-0.346 -1.32,-0.831 -1.815,-1.455c-0.495,-0.625 -0.873,-1.374 -1.134,-2.25c-0.261,-0.875 -0.392,-1.842 -0.392,-2.901c0,-0.964 0.138,-1.883 0.413,-2.758c0.274,-0.876 0.666,-1.65 1.175,-2.321c0.508,-0.672 1.127,-1.208 1.856,-1.609c0.728,-0.4 1.546,-0.6 2.453,-0.6c0.853,-0 1.623,0.142 2.31,0.427c0.687,0.285 1.251,0.659 1.691,1.12c0.343,0.353 0.666,0.801 0.969,1.344c0.302,0.543 0.529,1.119 0.68,1.73l0.248,0l-0,-4.438l-0.186,-0c-0.179,0.231 -0.33,0.428 -0.453,0.59c-0.124,0.163 -0.2,0.245 -0.227,0.245c-0.028,-0 -0.158,-0.072 -0.392,-0.214c-0.234,-0.143 -0.567,-0.299 -1,-0.468c-0.433,-0.17 -0.966,-0.326 -1.598,-0.469c-0.633,-0.142 -1.361,-0.213 -2.186,-0.213c-1.375,-0 -2.543,0.193 -3.505,0.58c-0.963,0.387 -1.774,0.899 -2.433,1.537c-0.468,0.448 -0.856,0.923 -1.165,1.425c-0.31,0.502 -0.55,0.998 -0.722,1.486c-0.172,0.489 -0.292,0.954 -0.361,1.395c-0.069,0.441 -0.103,0.831 -0.103,1.17c-0,1.154 0.189,2.196 0.567,3.125c0.378,0.93 0.921,1.717 1.629,2.362c0.708,0.645 1.577,1.133 2.608,1.466c1.031,0.332 2.2,0.499 3.506,0.499c0.66,-0 1.319,-0.068 1.979,-0.204c0.66,-0.136 1.261,-0.302 1.804,-0.499c0.543,-0.197 1.004,-0.39 1.382,-0.58c0.378,-0.19 0.615,-0.326 0.711,-0.407l0,-2.973c0,-0.312 0.007,-0.624 0.021,-0.936c0.014,-0.312 0.069,-0.543 0.165,-0.692c0.124,-0.19 0.323,-0.329 0.598,-0.418c0.275,-0.088 0.529,-0.145 0.763,-0.173Z" style="fill:#231f20;fill-rule:nonzero;"/></g></g></svg>