<?xml version="1.0" encoding="UTF-8" standalone="no"?><!DOCTYPE svg PUBLIC "-//W3C//DTD SVG 1.1//EN" "http://www.w3.org/Graphics/SVG/1.1/DTD/svg11.dtd"><svg width="100%" height="100%" viewBox="0 0 64 32" version="1.1" xmlns="http://www.w3.org/2000/svg" xmlns:xlink="http://www.w3.org/1999/xlink" xml:space="preserve" xmlns:serif="http://www.serif.com/" style="fill-rule:evenodd;clip-rule:evenodd;stroke-linejoin:round;stroke-miterlimit:2;"><rect id="logo-mono" x="0" y="0" width="64" height="32" style="fill:none;"/><g><g><path d="M8.69,29.74c-0,-0 -1.667,-3.102 -1.496,-4.772c0.201,-1.957 1.634,-5.725 3.249,-7.138c1.359,-1.188 5.381,-2.41 5.381,-2.41c-0,0 1.395,3.82 1.437,5.599c0.058,2.489 -2.091,5.614 -3.428,7.039c-1.103,1.176 -5.143,1.682 -5.143,1.682Z" style="fill:#fff;stroke:#000;stroke-width:0.5px;"/></g><path d="M11.007,17.421c0.556,-0.64 2.503,-2.361 4.622,-3.284c2.667,-1.162 4.692,-4.491 4.558,-6.856c-0.086,-1.519 -1.81,-2.966 -1.974,-2.741c-0.04,-0.513 0.221,-0.72 0.711,-0.692c0.889,0.398 1.301,0.956 1.664,1.647c0.655,1.247 0.694,2.803 0.215,4.274c-0.753,2.318 -2.51,4.95 -2.897,6.601c-0.315,1.343 -0.144,2.92 -0.284,3.941c-0.102,0.744 -0.555,2.184 -0.555,2.184c-0.539,-1.374 -0.872,-2.827 -0.804,-4.432c-0.482,0.504 -0.979,0.735 -1.494,0.637c-0.334,-0.468 -0.342,-0.999 -0.274,-1.544c-1.21,0.528 -2.357,0.475 -3.488,0.265Z"/><path d="M11.007,17.421c0.556,-0.64 2.503,-2.361 4.622,-3.284c2.667,-1.162 4.692,-4.491 4.558,-6.856c-0.086,-1.519 -1.81,-2.966 -1.974,-2.741c-0.04,-0.513 0.221,-0.72 0.711,-0.692c0.889,0.398 1.301,0.956 1.664,1.647c0.655,1.247 0.694,2.803 0.215,4.274c-0.753,2.318 -2.51,4.95 -2.897,6.601c-0.315,1.343 -0.144,2.92 -0.284,3.941c-0.102,0.744 -0.555,2.184 -0.555,2.184c-0.539,-1.374 -0.872,-2.827 -0.804,-4.432c-0.482,0.504 -0.979,0.735 -1.494,0.637c-0.334,-0.468 -0.342,-0.999 -0.274,-1.544c-1.21,0.528 -2.357,0.475 -3.488,0.265Zm8.925,-12.067c-0.133,-0.21 -0.284,-0.402 -0.475,-0.576c0.16,0.169 0.323,0.364 0.475,0.576Zm0.623,3.322c-0.509,2.298 -2.379,4.897 -4.727,5.92c-1.486,0.647 -2.885,1.702 -3.741,2.463c0.718,0.046 1.45,-0.03 2.209,-0.361c0.164,-0.072 0.355,-0.05 0.499,0.058c0.144,0.108 0.219,0.284 0.196,0.463c-0.043,0.347 -0.064,0.688 0.076,1c0.287,-0.024 0.558,-0.213 0.834,-0.502c0.144,-0.15 0.366,-0.196 0.558,-0.115c0.191,0.082 0.312,0.274 0.304,0.482c-0.04,0.936 0.064,1.818 0.269,2.661c0.041,-0.183 0.075,-0.356 0.095,-0.502c0.141,-1.033 -0.027,-2.628 0.292,-3.987c0.389,-1.661 2.151,-4.31 2.909,-6.641c0.101,-0.311 0.177,-0.625 0.227,-0.939Z"/><g><path d="M18.555,3.712c-6.697,-3.122 -11.065,-0.14 -14.385,5.588c5.934,1.128 11.212,0.5 14.679,-4.98c0.209,-0.295 0.083,-0.489 -0.294,-0.608Z"/><path d="M18.555,3.712c0.377,0.119 0.503,0.313 0.294,0.608c-3.467,5.48 -8.745,6.108 -14.679,4.98c3.32,-5.728 7.688,-8.71 14.385,-5.588Zm-0.203,0.457c-0.003,-0.001 -0.005,-0.002 -0.008,-0.003c-2.554,-1.191 -4.75,-1.466 -6.672,-1c-2.72,0.661 -4.868,2.789 -6.702,5.769c5.39,0.9 10.179,0.192 13.382,-4.766Z"/></g><g><path d="M18.622,3.925c-7.316,-0.98 -10.549,3.181 -11.945,9.655c5.979,-0.699 10.797,-2.881 12.409,-9.162c0.109,-0.345 -0.07,-0.492 -0.464,-0.493Z" style="fill:#fff;"/><path d="M18.622,3.925c0.394,0.001 0.573,0.148 0.464,0.493c-1.612,6.281 -6.43,8.463 -12.409,9.162c1.396,-6.474 4.629,-10.635 11.945,-9.655Zm-0.054,0.497c-0.004,-0.001 -0.008,-0.001 -0.013,-0.002c-2.788,-0.373 -4.956,0.021 -6.636,1.043c-2.381,1.447 -3.768,4.128 -4.595,7.53c5.394,-0.754 9.724,-2.866 11.244,-8.571Z"/></g><g><path d="M32.996,18.938l0,-0.203l-6.041,-0l-0,0.203c0.797,0.068 1.354,0.279 1.67,0.631c0.234,0.245 0.374,0.557 0.423,0.937c0.048,0.38 0.072,0.807 0.072,1.282c-0,0.476 -0.028,0.937 -0.083,1.385c-0.055,0.448 -0.137,0.76 -0.247,0.936c-0.33,0.503 -0.78,0.866 -1.351,1.09c-0.57,0.223 -1.185,0.335 -1.845,0.335c-0.921,0 -1.739,-0.173 -2.454,-0.519c-0.715,-0.346 -1.32,-0.831 -1.815,-1.455c-0.495,-0.625 -0.873,-1.375 -1.134,-2.25c-0.261,-0.875 -0.392,-1.842 -0.392,-2.901c0,-0.964 0.138,-1.883 0.413,-2.759c0.275,-0.875 0.667,-1.649 1.175,-2.32c0.509,-0.672 1.127,-1.208 1.856,-1.609c0.729,-0.4 1.546,-0.6 2.454,-0.6c0.852,-0 1.622,0.142 2.309,0.427c0.688,0.285 1.251,0.658 1.691,1.12c0.344,0.353 0.667,0.801 0.969,1.344c0.303,0.542 0.529,1.119 0.681,1.73l0.247,0l0,-4.438l-0.185,-0c-0.179,0.231 -0.33,0.427 -0.454,0.59c-0.124,0.163 -0.199,0.245 -0.227,0.245c-0.027,-0 -0.158,-0.072 -0.392,-0.214c-0.233,-0.143 -0.567,-0.299 -1,-0.468c-0.433,-0.17 -0.965,-0.326 -1.598,-0.469c-0.632,-0.142 -1.361,-0.213 -2.186,-0.213c-1.374,-0 -2.543,0.193 -3.505,0.58c-0.962,0.387 -1.773,0.899 -2.433,1.537c-0.468,0.448 -0.856,0.923 -1.165,1.425c-0.309,0.502 -0.55,0.998 -0.722,1.486c-0.172,0.489 -0.292,0.954 -0.361,1.395c-0.068,0.441 -0.103,0.831 -0.103,1.17c0,1.154 0.189,2.196 0.567,3.125c0.378,0.93 0.921,1.717 1.629,2.362c0.708,0.645 1.578,1.133 2.609,1.466c1.031,0.332 2.199,0.498 3.505,0.498c0.66,0 1.32,-0.067 1.98,-0.203c0.659,-0.136 1.261,-0.302 1.804,-0.499c0.543,-0.197 1.003,-0.39 1.381,-0.58c0.378,-0.19 0.616,-0.326 0.712,-0.407l-0,-2.973c-0,-0.312 0.007,-0.624 0.02,-0.936c0.014,-0.312 0.069,-0.543 0.165,-0.692c0.124,-0.19 0.323,-0.329 0.598,-0.418c0.275,-0.088 0.53,-0.146 0.763,-0.173Z" style="fill:#231f20;fill-rule:nonzero;"/><path d="M43.842,20.73c0,-0.814 -0.147,-1.524 -0.443,-2.128c-0.296,-0.604 -0.674,-1.106 -1.134,-1.506c-0.461,-0.401 -0.973,-0.702 -1.536,-0.906c-0.564,-0.204 -1.121,-0.305 -1.67,-0.305c-0.743,-0 -1.42,0.135 -2.032,0.407c-0.611,0.271 -1.134,0.631 -1.567,1.079c-0.433,0.448 -0.769,0.963 -1.01,1.547c-0.241,0.584 -0.361,1.188 -0.361,1.812c0,0.868 0.155,1.625 0.464,2.27c0.309,0.644 0.708,1.174 1.196,1.588c0.488,0.414 1.021,0.716 1.598,0.906c0.577,0.19 1.134,0.285 1.67,0.285c0.646,-0 1.262,-0.129 1.846,-0.387c0.584,-0.258 1.096,-0.618 1.536,-1.079c0.44,-0.462 0.79,-1.001 1.052,-1.619c0.261,-0.617 0.391,-1.272 0.391,-1.964Zm-1.917,-0.021c-0,0.476 -0.052,0.991 -0.155,1.548c-0.103,0.556 -0.268,1.075 -0.495,1.557c-0.227,0.482 -0.522,0.882 -0.886,1.201c-0.365,0.319 -0.815,0.479 -1.351,0.479c-0.536,-0 -0.997,-0.126 -1.382,-0.377c-0.385,-0.251 -0.701,-0.59 -0.948,-1.018c-0.248,-0.427 -0.426,-0.919 -0.536,-1.476c-0.11,-0.556 -0.165,-1.147 -0.165,-1.771c-0,-0.57 0.065,-1.13 0.196,-1.68c0.13,-0.549 0.323,-1.045 0.577,-1.486c0.254,-0.441 0.56,-0.797 0.918,-1.069c0.357,-0.271 0.763,-0.407 1.216,-0.407c0.564,0 1.038,0.146 1.423,0.438c0.385,0.292 0.694,0.662 0.928,1.11c0.234,0.447 0.402,0.936 0.505,1.465c0.103,0.53 0.155,1.025 0.155,1.486Z" style="fill:#231f20;fill-rule:nonzero;"/><path d="M47.925,12.709c0,-0.313 -0.106,-0.57 -0.319,-0.774c-0.214,-0.204 -0.478,-0.305 -0.794,-0.305c-0.317,-0 -0.581,0.101 -0.794,0.305c-0.213,0.204 -0.32,0.461 -0.32,0.774c0,0.298 0.11,0.556 0.33,0.773c0.22,0.217 0.481,0.326 0.784,0.326c0.316,-0 0.58,-0.105 0.794,-0.316c0.213,-0.21 0.319,-0.471 0.319,-0.783Zm-0.144,14.25l-0,-3.298c-0,-0.773 -0.004,-1.574 -0.011,-2.402c-0.006,-0.828 -0.01,-1.608 -0.01,-2.341l0,-3.033l-0.124,-0l-2.886,1.099l-0,0.142c0.165,0.095 0.36,0.204 0.587,0.326c0.227,0.122 0.396,0.231 0.506,0.326c0.096,0.081 0.154,0.146 0.175,0.193c0.02,0.048 0.031,0.126 0.031,0.234l-0,6.617c-0,0.258 -0.004,0.638 -0.011,1.14c-0.006,0.502 -0.024,1.018 -0.051,1.547c-0.014,0.258 -0.028,0.526 -0.041,0.804c-0.014,0.279 -0.059,0.54 -0.134,0.784c-0.076,0.244 -0.186,0.455 -0.33,0.631c-0.145,0.177 -0.347,0.292 -0.609,0.346c-0.233,-0.013 -0.398,-0.108 -0.495,-0.285c-0.096,-0.176 -0.182,-0.37 -0.257,-0.58c-0.076,-0.21 -0.182,-0.4 -0.32,-0.57c-0.137,-0.17 -0.35,-0.254 -0.639,-0.254c-0.344,-0 -0.602,0.088 -0.773,0.264c-0.172,0.177 -0.258,0.414 -0.258,0.713c-0,0.203 0.051,0.383 0.155,0.539c0.103,0.156 0.237,0.289 0.402,0.397c0.165,0.109 0.35,0.19 0.556,0.245c0.207,0.054 0.413,0.081 0.619,0.081c0.454,0 0.918,-0.126 1.392,-0.377c0.474,-0.251 0.897,-0.559 1.268,-0.926c0.371,-0.366 0.674,-0.763 0.907,-1.191c0.234,-0.427 0.351,-0.818 0.351,-1.171Z" style="fill:#231f20;fill-rule:nonzero;"/><path d="M52.956,12.668c0,-0.312 -0.106,-0.57 -0.319,-0.774c-0.213,-0.203 -0.478,-0.305 -0.794,-0.305c-0.316,-0 -0.581,0.102 -0.794,0.305c-0.213,0.204 -0.32,0.462 -0.32,0.774c0,0.299 0.11,0.556 0.33,0.774c0.22,0.217 0.481,0.325 0.784,0.325c0.316,0 0.581,-0.105 0.794,-0.315c0.213,-0.211 0.319,-0.472 0.319,-0.784Zm1.155,13.05l0,-0.204c-0.137,-0.027 -0.278,-0.044 -0.423,-0.051c-0.144,-0.007 -0.278,-0.024 -0.402,-0.051c-0.123,-0.027 -0.23,-0.071 -0.319,-0.132c-0.09,-0.061 -0.148,-0.16 -0.176,-0.295l0,-9.1l-0.123,-0l-2.784,0.895l0,0.122c0.192,0.068 0.375,0.143 0.546,0.224c0.172,0.082 0.32,0.163 0.444,0.245c0.096,0.068 0.154,0.142 0.175,0.224c0.021,0.081 0.031,0.176 0.031,0.285l-0,6.983c-0,0.122 -0.045,0.224 -0.134,0.305c-0.089,0.081 -0.199,0.146 -0.33,0.193c-0.131,0.048 -0.278,0.082 -0.443,0.102c-0.165,0.021 -0.33,0.037 -0.495,0.051l-0,0.204l4.433,-0Z" style="fill:#231f20;fill-rule:nonzero;"/><path d="M58.297,24.618c-0,-0.353 -0.11,-0.655 -0.33,-0.906c-0.22,-0.251 -0.509,-0.376 -0.866,-0.376c-0.357,-0 -0.653,0.118 -0.887,0.356c-0.233,0.237 -0.35,0.533 -0.35,0.886c-0,0.352 0.117,0.634 0.35,0.844c0.234,0.211 0.53,0.316 0.887,0.316c0.357,-0 0.646,-0.098 0.866,-0.295c0.22,-0.197 0.33,-0.472 0.33,-0.825Z" style="fill:#231f20;fill-rule:nonzero;"/></g></g></svg>