<?xml version="1.0" encoding="UTF-8" standalone="no"?><!DOCTYPE svg PUBLIC "-//W3C//DTD SVG 1.1//EN" "http://www.w3.org/Graphics/SVG/1.1/DTD/svg11.dtd"><svg width="100%" height="100%" viewBox="0 0 64 32" version="1.1" xmlns="http://www.w3.org/2000/svg" xmlns:xlink="http://www.w3.org/1999/xlink" xml:space="preserve" xmlns:serif="http://www.serif.com/" style="fill-rule:evenodd;clip-rule:evenodd;stroke-linejoin:round;stroke-miterlimit:2;"><rect id="logo" x="0" y="0" width="64" height="32" style="fill:none;"/><g><g><path d="M8.723,29.552c0,-0 -1.667,-3.102 -1.495,-4.772c0.201,-1.957 1.633,-5.725 3.249,-7.138c1.358,-1.188 5.38,-2.41 5.38,-2.41c0,0 1.396,3.82 1.438,5.599c0.058,2.489 -2.091,5.614 -3.428,7.039c-1.104,1.176 -5.144,1.682 -5.144,1.682Z" style="fill:url(#_Radial1);"/></g><path d="M11.04,17.233c0.557,-0.64 2.504,-2.361 4.622,-3.284c2.668,-1.162 4.693,-4.491 4.559,-6.856c-0.086,-1.519 -1.81,-2.966 -1.975,-2.741c-0.039,-0.513 0.221,-0.72 0.711,-0.692c0.89,0.398 1.302,0.956 1.665,1.647c0.655,1.247 0.693,2.803 0.215,4.274c-0.754,2.318 -2.511,4.95 -2.898,6.601c-0.315,1.343 -0.143,2.92 -0.283,3.941c-0.102,0.744 -0.555,2.184 -0.555,2.184c-0.539,-1.374 -0.872,-2.827 -0.804,-4.432c-0.482,0.504 -0.98,0.735 -1.495,0.637c-0.333,-0.468 -0.342,-0.999 -0.273,-1.544c-1.21,0.528 -2.358,0.475 -3.489,0.265Z" style="fill:#7aa353;"/><g><path d="M18.589,3.524c-6.698,-3.122 -11.065,-0.14 -14.385,5.588c5.933,1.128 11.212,0.5 14.678,-4.98c0.21,-0.295 0.084,-0.489 -0.293,-0.608Z" style="fill:#255e0d;"/></g><g><path d="M18.655,3.737c-7.315,-0.98 -10.548,3.181 -11.945,9.655c5.98,-0.699 10.798,-2.881 12.41,-9.162c0.109,-0.345 -0.071,-0.492 -0.465,-0.493Z" style="fill:#237400;"/></g><g><path d="M33.03,18.75l-0,-0.203l-6.042,-0l0,0.203c0.798,0.068 1.354,0.279 1.67,0.631c0.234,0.245 0.375,0.557 0.423,0.937c0.048,0.38 0.072,0.808 0.072,1.283c0,0.475 -0.027,0.936 -0.082,1.384c-0.055,0.448 -0.138,0.76 -0.248,0.936c-0.329,0.503 -0.78,0.866 -1.35,1.09c-0.571,0.224 -1.186,0.335 -1.846,0.335c-0.921,0 -1.739,-0.173 -2.453,-0.519c-0.715,-0.346 -1.32,-0.831 -1.815,-1.455c-0.495,-0.625 -0.873,-1.374 -1.134,-2.25c-0.261,-0.875 -0.392,-1.842 -0.392,-2.901c0,-0.964 0.138,-1.883 0.413,-2.758c0.274,-0.876 0.666,-1.65 1.175,-2.321c0.508,-0.672 1.127,-1.208 1.856,-1.609c0.728,-0.4 1.546,-0.6 2.453,-0.6c0.853,-0 1.623,0.142 2.31,0.427c0.687,0.285 1.251,0.659 1.691,1.12c0.343,0.353 0.666,0.801 0.969,1.344c0.302,0.543 0.529,1.119 0.68,1.73l0.248,0l-0,-4.438l-0.186,-0c-0.179,0.231 -0.33,0.428 -0.453,0.59c-0.124,0.163 -0.2,0.245 -0.227,0.245c-0.028,-0 -0.158,-0.072 -0.392,-0.214c-0.234,-0.143 -0.567,-0.299 -1,-0.468c-0.433,-0.17 -0.966,-0.326 -1.598,-0.469c-0.633,-0.142 -1.361,-0.213 -2.186,-0.213c-1.375,-0 -2.543,0.193 -3.505,0.58c-0.963,0.387 -1.774,0.899 -2.433,1.537c-0.468,0.448 -0.856,0.923 -1.165,1.425c-0.31,0.502 -0.55,0.998 -0.722,1.486c-0.172,0.489 -0.292,0.954 -0.361,1.395c-0.069,0.441 -0.103,0.831 -0.103,1.17c-0,1.154 0.189,2.196 0.567,3.125c0.378,0.93 0.921,1.717 1.629,2.362c0.708,0.645 1.577,1.133 2.608,1.466c1.031,0.332 2.2,0.499 3.506,0.499c0.66,-0 1.319,-0.068 1.979,-0.204c0.66,-0.136 1.261,-0.302 1.804,-0.499c0.543,-0.197 1.004,-0.39 1.382,-0.58c0.378,-0.19 0.615,-0.326 0.711,-0.407l0,-2.973c0,-0.312 0.007,-0.624 0.021,-0.936c0.014,-0.312 0.069,-0.543 0.165,-0.692c0.124,-0.19 0.323,-0.329 0.598,-0.418c0.275,-0.088 0.529,-0.145 0.763,-0.173Z" style="fill:#231f20;fill-rule:nonzero;"/><path d="M43.876,20.542c0,-0.814 -0.148,-1.524 -0.443,-2.128c-0.296,-0.603 -0.674,-1.106 -1.134,-1.506c-0.461,-0.4 -0.973,-0.702 -1.537,-0.906c-0.563,-0.204 -1.12,-0.305 -1.67,-0.305c-0.742,-0 -1.419,0.135 -2.031,0.407c-0.612,0.271 -1.134,0.631 -1.567,1.079c-0.433,0.448 -0.77,0.963 -1.01,1.547c-0.241,0.584 -0.361,1.188 -0.361,1.812c-0,0.869 0.154,1.625 0.464,2.27c0.309,0.645 0.708,1.174 1.196,1.588c0.488,0.414 1.02,0.716 1.598,0.906c0.577,0.19 1.134,0.285 1.67,0.285c0.646,-0 1.261,-0.129 1.845,-0.387c0.585,-0.258 1.097,-0.618 1.537,-1.079c0.44,-0.461 0.79,-1.001 1.051,-1.618c0.261,-0.618 0.392,-1.273 0.392,-1.965Zm-1.918,-0.02c0,0.475 -0.051,0.99 -0.154,1.547c-0.103,0.556 -0.268,1.075 -0.495,1.557c-0.227,0.482 -0.523,0.882 -0.887,1.201c-0.364,0.319 -0.814,0.479 -1.35,0.479c-0.537,-0 -0.997,-0.126 -1.382,-0.377c-0.385,-0.251 -0.701,-0.59 -0.948,-1.018c-0.248,-0.427 -0.427,-0.919 -0.537,-1.476c-0.11,-0.556 -0.165,-1.147 -0.165,-1.771c0,-0.57 0.066,-1.13 0.196,-1.679c0.131,-0.55 0.323,-1.046 0.578,-1.487c0.254,-0.441 0.56,-0.797 0.917,-1.068c0.358,-0.272 0.763,-0.408 1.217,-0.408c0.563,0 1.038,0.146 1.423,0.438c0.385,0.292 0.694,0.662 0.928,1.11c0.233,0.447 0.402,0.936 0.505,1.465c0.103,0.53 0.154,1.025 0.154,1.487Z" style="fill:#231f20;fill-rule:nonzero;"/><path d="M47.959,12.521c-0,-0.312 -0.107,-0.57 -0.32,-0.774c-0.213,-0.203 -0.478,-0.305 -0.794,-0.305c-0.316,-0 -0.58,0.102 -0.794,0.305c-0.213,0.204 -0.319,0.462 -0.319,0.774c-0,0.298 0.11,0.556 0.33,0.773c0.22,0.217 0.481,0.326 0.783,0.326c0.316,0 0.581,-0.105 0.794,-0.315c0.213,-0.211 0.32,-0.472 0.32,-0.784Zm-0.145,14.251l0,-3.298c0,-0.774 -0.003,-1.575 -0.01,-2.403c-0.007,-0.828 -0.01,-1.608 -0.01,-2.341l-0,-3.033l-0.124,-0l-2.887,1.099l0,0.142c0.165,0.095 0.361,0.204 0.588,0.326c0.227,0.122 0.395,0.231 0.505,0.326c0.096,0.081 0.155,0.146 0.175,0.193c0.021,0.048 0.031,0.126 0.031,0.234l0,6.617c0,0.258 -0.003,0.638 -0.01,1.14c-0.007,0.502 -0.024,1.018 -0.051,1.547c-0.014,0.258 -0.028,0.526 -0.042,0.804c-0.013,0.279 -0.058,0.54 -0.134,0.784c-0.075,0.245 -0.185,0.455 -0.33,0.631c-0.144,0.177 -0.347,0.292 -0.608,0.346c-0.234,-0.013 -0.399,-0.108 -0.495,-0.285c-0.096,-0.176 -0.182,-0.369 -0.258,-0.58c-0.075,-0.21 -0.182,-0.4 -0.319,-0.57c-0.138,-0.17 -0.351,-0.254 -0.639,-0.254c-0.344,-0 -0.602,0.088 -0.774,0.264c-0.172,0.177 -0.257,0.414 -0.257,0.713c-0,0.203 0.051,0.383 0.154,0.539c0.103,0.156 0.237,0.289 0.402,0.397c0.165,0.109 0.351,0.19 0.557,0.245c0.206,0.054 0.412,0.081 0.619,0.081c0.453,0 0.917,-0.125 1.391,-0.377c0.475,-0.251 0.897,-0.559 1.269,-0.926c0.371,-0.366 0.673,-0.763 0.907,-1.191c0.234,-0.427 0.35,-0.818 0.35,-1.17Z" style="fill:#231f20;fill-rule:nonzero;"/><path d="M52.99,12.48c0,-0.312 -0.106,-0.57 -0.32,-0.774c-0.213,-0.203 -0.477,-0.305 -0.793,-0.305c-0.317,0 -0.581,0.102 -0.794,0.305c-0.213,0.204 -0.32,0.462 -0.32,0.774c0,0.299 0.11,0.556 0.33,0.774c0.22,0.217 0.481,0.325 0.784,0.325c0.316,0 0.58,-0.105 0.793,-0.315c0.214,-0.211 0.32,-0.472 0.32,-0.784Zm1.155,13.05l-0,-0.204c-0.138,-0.027 -0.279,-0.044 -0.423,-0.051c-0.144,-0.007 -0.278,-0.024 -0.402,-0.051c-0.124,-0.027 -0.23,-0.071 -0.32,-0.132c-0.089,-0.061 -0.147,-0.159 -0.175,-0.295l0,-9.1l-0.124,-0l-2.783,0.895l-0,0.123c0.192,0.067 0.374,0.142 0.546,0.223c0.172,0.082 0.32,0.163 0.443,0.245c0.097,0.068 0.155,0.142 0.176,0.224c0.02,0.081 0.031,0.176 0.031,0.285l-0,6.983c-0,0.122 -0.045,0.224 -0.134,0.305c-0.09,0.081 -0.2,0.146 -0.33,0.193c-0.131,0.048 -0.279,0.082 -0.444,0.102c-0.165,0.021 -0.33,0.038 -0.495,0.051l0,0.204l4.434,-0Z" style="fill:#231f20;fill-rule:nonzero;"/><path d="M58.331,24.43c-0,-0.353 -0.11,-0.654 -0.33,-0.906c-0.22,-0.251 -0.509,-0.376 -0.866,-0.376c-0.358,-0 -0.653,0.119 -0.887,0.356c-0.234,0.238 -0.351,0.533 -0.351,0.886c0,0.353 0.117,0.634 0.351,0.845c0.234,0.21 0.529,0.315 0.887,0.315c0.357,0 0.646,-0.098 0.866,-0.295c0.22,-0.197 0.33,-0.472 0.33,-0.825Z" style="fill:#231f20;fill-rule:nonzero;"/></g></g><defs><radialGradient id="_Radial1" cx="0" cy="0" r="1" gradientUnits="userSpaceOnUse" gradientTransform="matrix(7.58822,-1.02303,1.43863,10.6709,11.8105,21.0947)"><stop offset="0" style="stop-color:#c05a2e;stop-opacity:1"/><stop offset="1" style="stop-color:#992f20;stop-opacity:1"/></radialGradient></defs></svg>