<?xml version="1.0" encoding="UTF-8" standalone="no"?><!DOCTYPE svg PUBLIC "-//W3C//DTD SVG 1.1//EN" "http://www.w3.org/Graphics/SVG/1.1/DTD/svg11.dtd"><svg width="100%" height="100%" viewBox="0 0 32 32" version="1.1" xmlns="http://www.w3.org/2000/svg" xmlns:xlink="http://www.w3.org/1999/xlink" xml:space="preserve" xmlns:serif="http://www.serif.com/" style="fill-rule:evenodd;clip-rule:evenodd;stroke-linejoin:round;stroke-miterlimit:2;"><rect id="a" x="0" y="0" width="32" height="32" style="fill:none;"/><path d="M15.861,13.791c-1.408,-1.539 -1.515,-3.689 -0.313,-4.814l7.986,-7.473c1.212,-1.134 3.376,-0.871 4.818,0.67l1.73,1.848c1.442,1.541 1.561,3.718 0.348,4.852l-7.985,7.473c-1.135,1.062 -3.104,0.899 -4.534,-0.39l-1.993,2.016l0.185,0.198c1.442,1.541 1.561,3.718 0.349,4.852l-7.986,7.473c-1.212,1.134 -3.376,0.871 -4.818,-0.669l-1.73,-1.849c-1.442,-1.541 -1.561,-3.718 -0.348,-4.852l7.985,-7.473c1.071,-1.002 2.882,-0.916 4.285,0.181l2.021,-2.043Zm3.828,0.368c0.516,0.253 1.076,0.254 1.44,-0.087l7.119,-6.662c0.525,-0.491 0.377,-1.426 -0.248,-2.094l-1.076,-1.151c-0.626,-0.668 -1.549,-0.877 -2.074,-0.386l-7.119,6.662c-0.398,0.373 -0.407,1.004 -0.117,1.577l0.914,-0.924c0.507,-0.512 1.402,-0.488 1.993,0.11c0.589,0.594 0.615,1.493 0.111,2.002l-0.943,0.953Zm-5.477,5.538l-0.685,0.693c-0.506,0.513 -1.401,0.488 -1.993,-0.11c-0.589,-0.594 -0.614,-1.493 -0.111,-2.002l0.555,-0.561c-0.412,-0.111 -0.821,-0.056 -1.107,0.211l-7.119,6.662c-0.525,0.492 -0.377,1.427 0.248,2.095l1.076,1.15c0.626,0.668 1.549,0.878 2.074,0.386l7.119,-6.662c0.466,-0.436 0.402,-1.222 -0.057,-1.862Z" style="fill:#060606;"/></svg>