<?xml version="1.0" encoding="UTF-8" standalone="no"?><!DOCTYPE svg PUBLIC "-//W3C//DTD SVG 1.1//EN" "http://www.w3.org/Graphics/SVG/1.1/DTD/svg11.dtd"><svg width="100%" height="100%" viewBox="0 0 32 32" version="1.1" xmlns="http://www.w3.org/2000/svg" xmlns:xlink="http://www.w3.org/1999/xlink" xml:space="preserve" xmlns:serif="http://www.serif.com/" style="fill-rule:evenodd;clip-rule:evenodd;stroke-linejoin:round;stroke-miterlimit:2;"><rect id="ol" x="0" y="0" width="32" height="32" style="fill:none;"/><path d="M31,4.303c-0,1.169 -0.949,2.118 -2.118,2.118l-17.662,-0c-1.169,-0 -2.118,-0.949 -2.118,-2.118c-0,-1.169 0.949,-2.118 2.118,-2.118l17.662,0c1.169,0 2.118,0.949 2.118,2.118Z"/><path d="M4.7,3.029l-0,2.864c-0,0.375 -0.305,0.68 -0.68,0.68c-0.376,-0 -0.681,-0.305 -0.681,-0.68l0,-2.864c0,-0.375 0.305,-0.68 0.681,-0.68c0.375,-0 0.68,0.305 0.68,0.68Z"/><path d="M3.14,14.568l0,2.864c0,0.375 -0.305,0.68 -0.68,0.68c-0.375,0 -0.68,-0.305 -0.68,-0.68l-0,-2.864c-0,-0.375 0.305,-0.68 0.68,-0.68c0.375,0 0.68,0.305 0.68,0.68Z"/><path d="M6.259,14.568l0,2.864c0,0.375 -0.304,0.68 -0.68,0.68c-0.375,0 -0.68,-0.305 -0.68,-0.68l0,-2.864c0,-0.375 0.305,-0.68 0.68,-0.68c0.376,0 0.68,0.305 0.68,0.68Z"/><path d="M31,16c-0,1.169 -0.949,2.118 -2.118,2.118l-17.662,-0c-1.169,-0 -2.118,-0.949 -2.118,-2.118c-0,-1.169 0.949,-2.118 2.118,-2.118l17.662,0c1.169,0 2.118,0.949 2.118,2.118Z"/><path d="M31,27.697c-0,1.169 -0.949,2.118 -2.118,2.118l-17.662,-0c-1.169,-0 -2.118,-0.949 -2.118,-2.118c-0,-1.169 0.949,-2.118 2.118,-2.118l17.662,0c1.169,0 2.118,0.949 2.118,2.118Z"/><path d="M2.36,26.265l0,2.864c0,0.375 -0.304,0.68 -0.68,0.68c-0.375,0 -0.68,-0.305 -0.68,-0.68l0,-2.864c0,-0.375 0.305,-0.68 0.68,-0.68c0.376,0 0.68,0.305 0.68,0.68Z"/><path d="M7.039,26.265l0,2.864c0,0.375 -0.305,0.68 -0.68,0.68c-0.375,0 -0.68,-0.305 -0.68,-0.68l-0,-2.864c-0,-0.375 0.305,-0.68 0.68,-0.68c0.375,0 0.68,0.305 0.68,0.68Z"/><path d="M4.7,26.265l-0,2.864c-0,0.375 -0.305,0.68 -0.68,0.68c-0.376,0 -0.681,-0.305 -0.681,-0.68l0,-2.864c0,-0.375 0.305,-0.68 0.681,-0.68c0.375,0 0.68,0.305 0.68,0.68Z"/></svg>