<?xml version="1.0" encoding="UTF-8" standalone="no"?><!DOCTYPE svg PUBLIC "-//W3C//DTD SVG 1.1//EN" "http://www.w3.org/Graphics/SVG/1.1/DTD/svg11.dtd"><svg width="100%" height="100%" viewBox="0 0 32 32" version="1.1" xmlns="http://www.w3.org/2000/svg" xmlns:xlink="http://www.w3.org/1999/xlink" xml:space="preserve" xmlns:serif="http://www.serif.com/" style="fill-rule:evenodd;clip-rule:evenodd;stroke-linejoin:round;stroke-miterlimit:2;"><rect id="ul" x="0" y="0" width="32" height="32" style="fill:none;"/><circle cx="3.208" cy="3.804" r="2.208"/><path d="M31,3.804c0,1.219 -0.989,2.208 -2.208,2.208l-18.416,0c-1.218,0 -2.208,-0.989 -2.208,-2.208c0,-1.218 0.99,-2.208 2.208,-2.208l18.416,0c1.219,0 2.208,0.99 2.208,2.208Z"/><path d="M31,16c0,1.219 -0.989,2.208 -2.208,2.208l-18.416,0c-1.218,0 -2.208,-0.989 -2.208,-2.208c0,-1.218 0.99,-2.208 2.208,-2.208l18.416,0c1.219,0 2.208,0.99 2.208,2.208Z"/><path d="M31,28.196c0,1.218 -0.989,2.208 -2.208,2.208l-18.416,-0c-1.218,-0 -2.208,-0.99 -2.208,-2.208c0,-1.219 0.99,-2.208 2.208,-2.208l18.416,-0c1.219,-0 2.208,0.989 2.208,2.208Z"/><circle cx="3.208" cy="16" r="2.208"/><circle cx="3.208" cy="28.196" r="2.208"/></svg>